<svg role="img" viewBox="0 0 24 24" xmlns="http://www.w3.org/2000/svg">
  <defs>
    <linearGradient id="grad1" x1="0%" y1="0%" x2="0%" y2="100%">
      <stop offset="0%" style="stop-color:#6dd5ed;stop-opacity:1" />
      <stop offset="100%" style="stop-color:#2193b0;stop-opacity:1" />
    </linearGradient>
  </defs>
  <title>Flat</title>
  <path d="M6.5455 17.4545v3.2728C6.5455 22.5348 5.0802 24 3.2727 24S0 22.5348 0 20.7273c0-1.8075 1.4652-3.2728 3.2727-3.2728Zm8.7272-8.7272V12c0 1.8075-1.4652 3.2727-3.2727 3.2727H5.4545c-1.8074 0-3.2727-1.4652-3.2727-3.2727 0-1.8075 1.4653-3.2727 3.2727-3.2727zM24 0v3.2727c0 1.8075-1.4652 3.2728-3.2727 3.2728H7.6363c-1.8074 0-3.2727-1.4653-3.2727-3.2728S5.829 0 7.6364 0Z" fill="url(#grad1)"/>
</svg>